<?xml version="1.0" encoding="UTF-8" standalone="no"?>
<!-- Created with Inkscape (http://www.inkscape.org/) -->

<svg
   xmlns:dc="http://purl.org/dc/elements/1.1/"
   xmlns:cc="http://creativecommons.org/ns#"
   xmlns:rdf="http://www.w3.org/1999/02/22-rdf-syntax-ns#"
   xmlns:svg="http://www.w3.org/2000/svg"
   xmlns="http://www.w3.org/2000/svg"
   xmlns:sodipodi="http://sodipodi.sourceforge.net/DTD/sodipodi-0.dtd"
   xmlns:inkscape="http://www.inkscape.org/namespaces/inkscape"
   width="180"
   height="180"
   id="svg3020"
   version="1.1"
   inkscape:version="0.48.1 r9760"
   style="display:inline"
   inkscape:export-filename="/home/wtopolski/WorkspaceSunset/PoryDnia/sunset-widget/sunset-widget-app/res/drawable-hdpi/favorite_selected.png"
   inkscape:export-xdpi="90"
   inkscape:export-ydpi="90"
   sodipodi:docname="favorite.svg">
  <defs
     id="defs3022">
    <clipPath
       clipPathUnits="userSpaceOnUse"
       id="clipPath942">
      <path
         inkscape:connector-curvature="0"
         d="M 0,96 96,96 96,0 0,0 0,96 z"
         id="path944" />
    </clipPath>
  </defs>
  <sodipodi:namedview
     id="base"
     pagecolor="#ffffff"
     bordercolor="#666666"
     borderopacity="1.0"
     inkscape:pageopacity="0.0"
     inkscape:pageshadow="2"
     inkscape:zoom="0.72788629"
     inkscape:cx="350.75271"
     inkscape:cy="251.4129"
     inkscape:document-units="px"
     inkscape:current-layer="layer1"
     showgrid="false"
     inkscape:window-width="1680"
     inkscape:window-height="970"
     inkscape:window-x="0"
     inkscape:window-y="24"
     inkscape:window-maximized="1" />
  <metadata
     id="metadata3025">
    <rdf:RDF>
      <cc:Work
         rdf:about="">
        <dc:format>image/svg+xml</dc:format>
        <dc:type
           rdf:resource="http://purl.org/dc/dcmitype/StillImage" />
        <dc:title></dc:title>
      </cc:Work>
    </rdf:RDF>
  </metadata>
  <g
     inkscape:label="Layer 1"
     inkscape:groupmode="layer"
     id="layer1"
     style="display:inline"
     transform="translate(0,-872.36218)">
    <path
       d="m 145.82662,913.99327 -111.204808,0 0,-9.97981 111.204808,0 0,9.97981 z m 0,26.38454 -111.204808,0 0,-9.96894 111.204808,0 0,9.96894 z m 0,27.27055 -111.204808,0 0,-10.86582 111.204808,0 0,10.86582 z m -0.44301,26.38183 -111.202081,0 0,-10.4201 111.202081,0 0,10.4201 z m 0,25.94701 -110.761798,0 0,-9.9799 110.761798,0 0,9.9799 z m -18.42406,-145.11502 -108.329355,0 0,175.00002 142.739605,0 0,-175.00002 -34.41025,0 z"
       style="fill:#333333;fill-opacity:1;fill-rule:nonzero;stroke:none"
       id="path1420"
       inkscape:connector-curvature="0" />
  </g>
</svg>
