<?xml version="1.0" encoding="UTF-8" standalone="no"?>
<!-- Created with Inkscape (http://www.inkscape.org/) -->

<svg
   xmlns:dc="http://purl.org/dc/elements/1.1/"
   xmlns:cc="http://creativecommons.org/ns#"
   xmlns:rdf="http://www.w3.org/1999/02/22-rdf-syntax-ns#"
   xmlns:svg="http://www.w3.org/2000/svg"
   xmlns="http://www.w3.org/2000/svg"
   xmlns:sodipodi="http://sodipodi.sourceforge.net/DTD/sodipodi-0.dtd"
   xmlns:inkscape="http://www.inkscape.org/namespaces/inkscape"
   width="180"
   height="180"
   id="svg3020"
   version="1.1"
   inkscape:version="0.48.1 r9760"
   style="display:inline"
   inkscape:export-filename="/home/wtopolski/WorkspaceSunset/PoryDnia/sunset-widget/sunset-widget-app/res/drawable-hdpi/list_selected.png"
   inkscape:export-xdpi="90"
   inkscape:export-ydpi="90"
   sodipodi:docname="list.svg">
  <defs
     id="defs3022">
    <clipPath
       clipPathUnits="userSpaceOnUse"
       id="clipPath942">
      <path
         inkscape:connector-curvature="0"
         d="M 0,96 96,96 96,0 0,0 0,96 z"
         id="path944" />
    </clipPath>
    <clipPath
       clipPathUnits="userSpaceOnUse"
       id="clipPath1524">
      <path
         inkscape:connector-curvature="0"
         d="M 0,96 96,96 96,0 0,0 0,96 z"
         id="path1526" />
    </clipPath>
  </defs>
  <sodipodi:namedview
     id="base"
     pagecolor="#ffffff"
     bordercolor="#666666"
     borderopacity="1.0"
     inkscape:pageopacity="0.0"
     inkscape:pageshadow="2"
     inkscape:zoom="0.72788629"
     inkscape:cx="350.75271"
     inkscape:cy="251.4129"
     inkscape:document-units="px"
     inkscape:current-layer="layer1"
     showgrid="false"
     inkscape:window-width="1680"
     inkscape:window-height="970"
     inkscape:window-x="0"
     inkscape:window-y="24"
     inkscape:window-maximized="1" />
  <metadata
     id="metadata3025">
    <rdf:RDF>
      <cc:Work
         rdf:about="">
        <dc:format>image/svg+xml</dc:format>
        <dc:type
           rdf:resource="http://purl.org/dc/dcmitype/StillImage" />
        <dc:title></dc:title>
      </cc:Work>
    </rdf:RDF>
  </metadata>
  <g
     inkscape:label="Layer 1"
     inkscape:groupmode="layer"
     id="layer1"
     style="display:inline"
     transform="translate(0,-872.36218)">
    <g
       id="g1520"
       transform="matrix(2.3642259,0,0,-2.3642259,-23.482843,1075.845)">
      <g
         id="g1522"
         clip-path="url(#clipPath1524)">
        <path
           d="m 84.011,25.994 -12.004,0 0,-4.002 12.004,0 0,4.002 z m -30.009,0 -42.013,0 0,-4.002 42.013,0 0,4.002 z M 84.011,50 l -42.013,0 0,-4 42.013,0 0,4 z m -60.019,0 -12.003,0 0,-4 12.003,0 0,4 z m 60.019,24.007 -12.004,0 0,-4.001 12.004,0 0,4.001 z m -30.009,0 -42.013,0 0,-4.001 42.013,0 0,4.001 z m 8.122,11.003 c -2.811,0 -5.121,-2.301 -5.121,-5.121 l 0,-15.765 c 0,-2.821 2.31,-5.122 5.121,-5.122 l 1.761,0 c 2.821,0 5.122,2.301 5.122,5.122 l 0,15.765 c 0,2.82 -2.301,5.121 -5.122,5.121 l -1.761,0 z m 0,-48.014 c -2.811,0 -5.121,-2.299 -5.121,-5.121 l 0,-15.764 c 0,-2.822 2.31,-5.121 5.121,-5.121 l 1.761,0 c 2.809,0 5.122,2.299 5.122,5.121 l 0,15.764 c 0,2.822 -2.313,5.121 -5.122,5.121 l -1.761,0 z M 32.115,61.003 c -2.81,0 -5.121,-2.3 -5.121,-5.121 l 0,-15.765 c 0,-2.82 2.311,-5.121 5.121,-5.121 l 1.76,0 c 2.811,0 5.122,2.301 5.122,5.121 l 0,15.765 c 0,2.821 -2.311,5.121 -5.122,5.121 l -1.76,0 z"
           style="fill:#333333;fill-opacity:1;fill-rule:nonzero;stroke:none"
           id="path1528"
           inkscape:connector-curvature="0" />
      </g>
    </g>
  </g>
</svg>
